<?xml version="1.0" encoding="UTF-8" standalone="no"?>
<!DOCTYPE svg PUBLIC "-//W3C//DTD SVG 1.1//EN" "http://www.w3.org/Graphics/SVG/1.1/DTD/svg11.dtd">
<svg width="100%" height="100%" viewBox="0 0 942 942" version="1.1" xmlns="http://www.w3.org/2000/svg" xmlns:xlink="http://www.w3.org/1999/xlink" xml:space="preserve" xmlns:serif="http://www.serif.com/" style="fill-rule:evenodd;clip-rule:evenodd;stroke-linejoin:round;stroke-miterlimit:2;">
    <g transform="matrix(0.0864817,0,0,-0.0864817,62.2163,879.477)">
        <g transform="matrix(14.1027,0,0,-14.1027,-1622.09,12533.8)">
            <circle cx="450" cy="554.137" r="378.38" style="fill:white;"/>
        </g>
        <path d="M4545,9290C4342,9171 3807,8863 3355,8603C3218,8524 3098,8456 3090,8450C3054,8428 2804,8285 2795,8281C2790,8279 2774,8269 2760,8260C2736,8243 2711,8228 2610,8172C2585,8158 2485,8100 2387,8043C2289,7987 2207,7940 2205,7940C2203,7940 2181,7927 2157,7910C2132,7894 2110,7880 2107,7880C2103,7880 2040,7844 1964,7800C1889,7756 1826,7720 1825,7720C1823,7720 1785,7698 1740,7670C1695,7643 1657,7620 1655,7620C1653,7620 1603,7591 1543,7557C1484,7522 1269,7397 1065,7280C862,7163 693,7065 690,7063C687,7060 685,6004 685,4715C684,2411 684,2372 703,2360C714,2354 737,2340 754,2331C771,2321 873,2262 980,2200C1087,2138 1189,2079 1207,2069C1224,2059 1257,2040 1279,2026C1301,2011 1322,2000 1324,2000C1326,2000 1404,1956 1497,1902C1684,1792 2056,1578 2110,1547C2129,1537 2213,1489 2295,1441C2378,1392 2594,1267 2775,1163C2957,1058 3247,890 3420,790C3593,690 3755,596 3780,582C3805,568 3920,502 4035,435C4556,133 4724,37 4739,33C4748,31 4793,51 4840,78C5271,327 5521,471 5550,488C5569,499 5641,540 5710,580C5779,620 5850,661 5868,671C5886,682 5961,725 6033,767C6106,809 6179,850 6195,860C6287,912 6623,1106 6670,1134C6700,1153 6745,1179 6770,1192C6795,1206 6856,1241 6905,1270C6955,1299 7009,1330 7026,1340C7082,1372 7654,1703 7740,1753C7787,1780 7845,1814 7870,1828C7895,1842 8012,1909 8130,1978C8248,2047 8366,2115 8392,2129C8418,2143 8481,2179 8532,2209C8583,2239 8641,2272 8660,2283C8679,2293 8710,2311 8728,2322L8760,2342L8758,4718C8755,7087 8755,7094 8735,7105C8724,7110 8679,7136 8635,7161C8591,7187 8539,7217 8520,7228C8501,7238 8445,7271 8395,7300C8346,7329 8285,7364 8260,7378C8235,7392 8136,7449 8040,7505C7869,7605 7525,7803 7485,7824C7474,7831 7422,7861 7370,7891C7267,7952 6837,8201 6780,8233C6761,8243 6615,8328 6455,8420C5995,8686 5599,8915 5550,8942C5514,8962 4893,9321 4775,9390L4745,9407L4545,9290ZM4935,8648C4996,8613 5054,8579 5065,8572C5083,8562 5154,8521 5425,8365C5480,8333 5539,8299 5557,8289C5575,8279 5748,8179 5942,8067C6136,7954 6311,7853 6330,7843C6349,7832 6464,7765 6585,7695C6706,7625 6825,7556 6850,7542C6875,7528 6947,7487 7010,7450C7073,7414 7249,7312 7400,7225C7551,7138 7713,7044 7760,7017C7845,6967 7876,6949 7948,6909C8118,6812 8217,6754 8231,6743C8245,6731 8247,6542 8246,4715C8245,3387 8242,2698 8235,2691C8230,2686 8155,2641 8070,2592C7985,2543 7809,2442 7680,2368C7551,2293 7362,2184 7260,2125C7158,2066 7057,2008 7035,1995C6944,1943 6796,1858 6658,1778C6578,1731 6506,1690 6498,1686C6491,1683 6472,1672 6455,1661C6424,1643 6044,1423 5978,1386C5949,1369 5687,1218 5549,1137C5414,1059 5126,893 5090,872C5065,858 4980,809 4901,763C4822,718 4753,680 4748,680C4743,680 4632,741 4502,817C4372,892 4252,961 4235,970C4219,980 4133,1029 4045,1080C3957,1131 3872,1180 3855,1190C3839,1199 3722,1267 3595,1340C3469,1413 3352,1481 3335,1490C3319,1499 3202,1567 3075,1640C2640,1892 2205,2143 2170,2162C2151,2173 2106,2199 2070,2220C2034,2241 1986,2269 1964,2282C1941,2295 1771,2392 1586,2499L1250,2693L1250,6737L1573,6924C1750,7026 1906,7117 1920,7125C1934,7133 2010,7177 2090,7223C2170,7269 2255,7318 2280,7332C2305,7346 2483,7449 2675,7560C2868,7671 3041,7771 3060,7782C3079,7793 3109,7809 3125,7819C3159,7840 3389,7973 3665,8132C3770,8192 3862,8246 3870,8251C3878,8256 3939,8291 4005,8328C4071,8366 4202,8441 4295,8495C4389,8549 4476,8600 4490,8607C4504,8614 4567,8651 4630,8689L4745,8757L4785,8734C4807,8722 4875,8683 4935,8648Z" style="fill-rule:nonzero;"/>
        <path d="M4812,7199C4788,7194 4726,7175 4674,7155C4566,7115 4544,7112 4325,7105C4237,7103 4154,7098 4140,7095C4078,7083 4055,7077 4040,7070C4032,7066 4004,7052 3979,7040C3884,6995 3800,6905 3769,6816C3759,6789 3739,6766 3704,6740C3639,6691 3619,6659 3611,6590C3604,6537 3599,6528 3511,6428C3348,6243 3233,6049 3166,5849C3142,5778 3089,5531 3075,5430C3072,5405 3067,5378 3065,5370C3063,5362 3058,5324 3055,5285C3051,5247 3047,5202 3045,5185C3034,5101 3028,5002 3026,4886L3023,4757L2979,4727C2861,4647 2801,4503 2806,4315C2808,4226 2824,4161 2882,4015C2964,3807 3013,3738 3118,3682C3173,3653 3179,3646 3195,3598C3269,3365 3387,3108 3498,2940C3621,2750 3734,2638 3929,2507C4099,2393 4415,2255 4550,2235C4575,2232 4611,2225 4630,2221C4821,2180 5242,2331 5555,2554C5593,2581 5630,2608 5636,2614C5642,2620 5669,2646 5697,2671C5895,2855 6061,3144 6205,3555C6240,3653 6239,3652 6304,3689C6333,3705 6374,3738 6394,3762C6426,3799 6485,3907 6510,3975C6514,3986 6527,4022 6540,4055C6552,4088 6565,4124 6570,4135C6617,4249 6608,4461 6550,4584C6512,4665 6503,4675 6401,4747C6398,4749 6396,4772 6394,4798C6390,4907 6378,5112 6375,5137C6373,5153 6369,5194 6366,5230C6362,5266 6358,5306 6356,5320C6353,5334 6349,5368 6345,5395C6337,5467 6311,5619 6300,5660C6295,5679 6289,5708 6286,5723C6264,5852 6152,6095 6043,6254C6001,6315 5966,6375 5964,6389C5963,6404 5959,6456 5956,6506C5946,6660 5927,6694 5793,6790C5702,6856 5688,6871 5683,6905C5677,6942 5645,6991 5613,7011C5556,7047 5500,7056 5312,7064C5267,7066 5228,7069 5227,7071C5226,7073 5220,7084 5214,7095C5197,7126 5131,7167 5069,7184C5003,7203 4874,7210 4812,7199ZM5510,6480C5658,6441 5728,6399 5816,6293C6006,6064 6119,5821 6165,5540C6168,5521 6173,5498 6175,5490C6180,5471 6210,5244 6215,5182C6220,5115 6231,4875 6235,4745C6237,4685 6238,4632 6239,4629C6240,4625 6257,4619 6278,4615C6324,4607 6373,4577 6394,4546C6402,4532 6418,4490 6429,4451C6460,4339 6452,4272 6384,4089C6301,3865 6265,3819 6171,3816C6120,3815 6119,3815 6109,3775C6091,3706 6024,3508 5991,3426C5935,3287 5826,3070 5808,3062C5803,3060 5800,3054 5800,3048C5800,3020 5704,2902 5585,2785C5484,2686 5367,2608 5172,2510C4798,2322 4580,2330 4174,2544C3855,2713 3682,2891 3519,3220C3444,3371 3391,3501 3351,3630C3288,3834 3298,3815 3254,3816C3189,3817 3185,3819 3143,3855C3107,3886 3094,3910 3041,4044C2973,4216 2957,4281 2963,4367C2975,4517 3036,4607 3135,4618C3151,4620 3168,4627 3172,4633C3176,4640 3180,4679 3181,4720C3182,4839 3197,5156 3205,5225C3207,5247 3212,5290 3215,5320C3222,5386 3253,5561 3275,5656C3326,5880 3427,6088 3568,6257C3621,6320 3749,6448 3773,6462C3783,6467 3805,6459 3840,6436C3945,6367 4108,6335 4355,6336C4459,6337 4638,6348 4650,6355C4653,6356 4677,6361 4704,6364C4731,6368 4855,6394 4979,6422C5103,6450 5232,6478 5265,6485C5336,6499 5447,6497 5510,6480Z" style="fill-rule:nonzero;"/>
        <path d="M5500,5053C5394,5046 5278,5017 5197,4975C5124,4938 5084,4926 4960,4904C4941,4901 4835,4896 4725,4894C4494,4891 4410,4901 4377,4937C4316,5004 4193,5040 4010,5045L3875,5049L3800,5013C3686,4959 3664,4953 3514,4936C3437,4927 3352,4914 3323,4908C3278,4898 3271,4894 3266,4867C3255,4814 3260,4790 3284,4765C3309,4740 3322,4697 3365,4495C3419,4235 3450,4157 3522,4096C3605,4024 3721,3989 3884,3986C4012,3983 4069,3991 4165,4027C4351,4096 4442,4205 4555,4493C4576,4547 4605,4602 4618,4615C4667,4664 4777,4654 4814,4597C4823,4584 4846,4533 4866,4484C4918,4353 4948,4292 4990,4230C5097,4073 5260,3991 5477,3986C5654,3981 5763,4006 5867,4075C5956,4134 5987,4199 6036,4423C6087,4666 6110,4744 6132,4761C6160,4783 6163,4876 6137,4895C6121,4906 6037,4923 5930,4936C5905,4939 5854,4956 5815,4975C5684,5040 5605,5059 5500,5053ZM4205,4867C4338,4829 4417,4781 4457,4713C4505,4630 4490,4536 4395,4344C4292,4137 4141,4058 3860,4064C3716,4068 3651,4087 3582,4145C3499,4216 3452,4367 3456,4547C3459,4722 3477,4776 3547,4820C3601,4855 3614,4854 3618,4817C3622,4782 3635,4783 3666,4819C3679,4835 3709,4858 3733,4870C3773,4890 3784,4891 3965,4886C4084,4883 4174,4876 4205,4867ZM5766,4866C5794,4857 5834,4838 5856,4822C5877,4807 5903,4791 5912,4787C5940,4777 5960,4676 5962,4536C5965,4302 5900,4166 5751,4094C5702,4070 5681,4066 5580,4064C5334,4058 5169,4118 5078,4248C5013,4341 4930,4544 4930,4608C4930,4697 4983,4769 5086,4820C5137,4845 5164,4852 5208,4852C5240,4851 5287,4859 5315,4870C5358,4886 5388,4888 5540,4885C5662,4883 5730,4877 5766,4866Z" style="fill-rule:nonzero;"/>
        <path d="M4003,4700C3956,4690 3890,4659 3844,4624C3807,4597 3770,4527 3777,4500C3785,4468 3803,4477 3837,4530C3859,4563 3888,4590 3922,4610C3994,4651 4001,4649 3983,4598C3962,4538 3974,4488 4016,4450C4035,4434 4060,4419 4070,4419C4081,4418 4100,4417 4113,4416C4201,4409 4263,4500 4235,4597L4223,4638L4254,4627C4271,4621 4311,4590 4344,4558C4382,4520 4407,4503 4413,4509C4429,4525 4411,4569 4372,4608C4288,4692 4145,4728 4003,4700Z" style="fill-rule:nonzero;"/>
        <path d="M5300,4691C5203,4661 5110,4582 5110,4531C5110,4497 5140,4507 5182,4555C5218,4596 5284,4640 5308,4640C5314,4640 5311,4621 5303,4599C5261,4475 5376,4373 5494,4431C5555,4460 5581,4539 5553,4608C5538,4645 5539,4646 5588,4621C5637,4596 5672,4563 5699,4518C5728,4470 5750,4468 5750,4513C5750,4576 5653,4662 5550,4691C5480,4710 5363,4710 5300,4691Z" style="fill-rule:nonzero;"/>
        <path d="M4337,3739C4328,3707 4352,3649 4382,3627C4411,3605 4465,3600 4533,3613C4561,3618 4582,3615 4613,3601C4679,3571 4711,3570 4789,3596C4827,3609 4865,3618 4872,3615C4903,3604 4968,3602 5003,3611C5064,3627 5105,3717 5065,3750C5045,3767 5032,3755 5024,3714C5021,3695 5010,3676 5001,3671C4984,3662 4975,3663 4895,3674C4858,3679 4835,3677 4805,3664C4726,3631 4702,3630 4631,3656C4583,3674 4555,3679 4530,3675C4511,3671 4485,3666 4473,3664C4437,3657 4401,3677 4394,3707C4381,3760 4347,3779 4337,3739Z" style="fill-rule:nonzero;"/>
        <path d="M4395,3521C4345,3506 4189,3444 4115,3410C4046,3379 3991,3382 3971,3418C3959,3440 3982,3480 4006,3480C4014,3480 4020,3485 4020,3490C4020,3512 3963,3499 3930,3470C3903,3446 3896,3431 3892,3391C3886,3328 3913,3286 3979,3257C4072,3216 4265,3237 4575,3321C4711,3357 4717,3358 4803,3330C4837,3320 4876,3309 4890,3306C4904,3304 4933,3297 4955,3292C4998,3280 5126,3254 5187,3244C5208,3240 5262,3237 5307,3237C5439,3236 5515,3283 5523,3372C5527,3409 5512,3446 5483,3472C5459,3494 5400,3507 5400,3491C5400,3485 5404,3480 5409,3480C5425,3480 5450,3449 5450,3430C5450,3406 5414,3386 5376,3388C5351,3390 5252,3428 5135,3480C5044,3520 4985,3534 4905,3533C4810,3533 4809,3532 4748,3498C4703,3473 4700,3472 4678,3489C4612,3538 4494,3552 4395,3521Z" style="fill-rule:nonzero;"/>
        <path d="M4437,3182C4567,3057 4814,3057 4949,3180C4988,3216 4990,3235 4953,3225C4897,3211 4873,3209 4730,3206C4593,3204 4503,3209 4420,3225L4385,3231L4437,3182Z" style="fill-rule:nonzero;"/>
    </g>
</svg>
