<?xml version="1.0" encoding="UTF-8" standalone="no"?>
<!DOCTYPE svg PUBLIC "-//W3C//DTD SVG 1.1//EN" "http://www.w3.org/Graphics/SVG/1.1/DTD/svg11.dtd">
<svg width="100%" height="100%" viewBox="0 0 687 262" version="1.1" xmlns="http://www.w3.org/2000/svg" xmlns:xlink="http://www.w3.org/1999/xlink" xml:space="preserve" xmlns:serif="http://www.serif.com/" style="fill-rule:evenodd;clip-rule:evenodd;stroke-linejoin:round;stroke-miterlimit:2;">
    <path d="M350.888,126.044C369.68,126.044 383.339,111.863 383.339,94.55L383.339,94.376C383.339,77.063 369.854,63.056 351.062,63.056C332.27,63.056 318.611,77.237 318.611,94.55L318.611,94.724C318.611,112.037 332.096,126.044 350.888,126.044ZM351.062,113.69C340.274,113.69 332.618,104.99 332.618,94.55L332.618,94.376C332.618,83.936 340.1,75.41 350.888,75.41C361.676,75.41 369.332,84.11 369.332,94.55L369.332,94.724C369.332,105.164 361.85,113.69 351.062,113.69ZM393.484,125L406.882,125L406.882,106.73L417.061,106.73C430.72,106.73 441.682,99.422 441.682,85.328L441.682,85.154C441.682,72.713 432.895,64.1 418.366,64.1L393.484,64.1L393.484,125ZM406.882,94.811L406.882,76.193L417.235,76.193C423.934,76.193 428.11,79.412 428.11,85.415L428.11,85.589C428.11,90.809 424.195,94.811 417.496,94.811L406.882,94.811ZM449.857,125L496.228,125L496.228,113.081L463.168,113.081L463.168,100.292L491.878,100.292L491.878,88.373L463.168,88.373L463.168,76.019L495.793,76.019L495.793,64.1L449.857,64.1L449.857,125ZM506.4,125L519.625,125L519.625,86.285L549.118,125L560.515,125L560.515,64.1L547.291,64.1L547.291,101.597L518.754,64.1L506.4,64.1L506.4,125ZM342.971,206.87C356.108,206.87 365.33,200.084 365.33,187.991L365.33,187.817C365.33,177.203 358.37,172.766 346.016,169.547C335.489,166.85 332.879,165.545 332.879,161.543L332.879,161.369C332.879,158.411 335.576,156.062 340.709,156.062C345.842,156.062 351.149,158.324 356.543,162.065L363.503,151.973C357.326,147.014 349.757,144.23 340.883,144.23C328.442,144.23 319.568,151.538 319.568,162.587L319.568,162.761C319.568,174.854 327.485,178.247 339.752,181.379C349.931,183.989 352.019,185.729 352.019,189.122L352.019,189.296C352.019,192.863 348.713,195.038 343.232,195.038C336.272,195.038 330.53,192.167 325.049,187.643L317.132,197.126C324.44,203.651 333.749,206.87 342.971,206.87ZM404.797,207.044C423.589,207.044 437.248,192.863 437.248,175.55L437.248,175.376C437.248,158.063 423.763,144.056 404.971,144.056C386.179,144.056 372.52,158.237 372.52,175.55L372.52,175.724C372.52,193.037 386.005,207.044 404.797,207.044ZM404.971,194.69C394.183,194.69 386.527,185.99 386.527,175.55L386.527,175.376C386.527,164.936 394.009,156.41 404.797,156.41C415.585,156.41 423.241,165.11 423.241,175.55L423.241,175.724C423.241,186.164 415.759,194.69 404.971,194.69ZM472.797,206.957C489.153,206.957 499.506,197.909 499.506,179.465L499.506,145.1L486.108,145.1L486.108,179.987C486.108,189.644 481.149,194.603 472.971,194.603C464.793,194.603 459.834,189.47 459.834,179.552L459.834,145.1L446.436,145.1L446.436,179.9C446.436,197.822 456.441,206.957 472.797,206.957ZM511.413,206L524.811,206L524.811,186.512L535.338,186.512L548.388,206L564.048,206L549.171,184.25C556.914,181.379 562.221,175.202 562.221,165.371L562.221,165.197C562.221,159.455 560.394,154.67 557.001,151.277C552.999,147.275 546.996,145.1 539.253,145.1L511.413,145.1L511.413,206ZM524.811,174.68L524.811,157.193L538.122,157.193C544.647,157.193 548.649,160.151 548.649,165.893L548.649,166.067C548.649,171.2 544.908,174.68 538.383,174.68L524.811,174.68ZM601.08,207.044C612.825,207.044 619.785,202.868 626.049,196.169L617.523,187.556C612.738,191.906 608.475,194.69 601.515,194.69C591.075,194.69 583.854,185.99 583.854,175.55L583.854,175.376C583.854,164.936 591.249,156.41 601.515,156.41C607.605,156.41 612.39,159.02 617.088,163.283L625.614,153.452C619.959,147.884 613.086,144.056 601.602,144.056C582.897,144.056 569.847,158.237 569.847,175.55L569.847,175.724C569.847,193.211 583.158,207.044 601.08,207.044ZM635.035,206L681.406,206L681.406,194.081L648.346,194.081L648.346,181.292L677.056,181.292L677.056,169.373L648.346,169.373L648.346,157.019L680.971,157.019L680.971,145.1L635.035,145.1L635.035,206Z" style="fill:rgb(87,101,116);fill-rule:nonzero;"/>
    <path d="M152.182,179.225C171.002,172.235 180.827,158.774 180.827,135.606C180.827,112.438 161.304,92.023 136.91,91.983C111.168,91.941 91.75,112.353 92.06,135.606C92.37,158.858 103.459,174.327 121.208,179.921L89.767,257.27C47.686,246.376 4.887,196.733 4.887,135.606C4.887,63.205 63.062,4.512 135.977,4.512C208.891,4.512 268,63.205 268,135.606C268,197.684 225.607,246.635 182.628,257.487L152.182,179.225Z" style="fill:rgb(87,101,116);fill-rule:nonzero;"/>
</svg>
