<svg xmlns="http://www.w3.org/2000/svg" xmlns:xlink="http://www.w3.org/1999/xlink" width="100%" height="100%" version="1.1" viewBox="0 0 1817 705" xml:space="preserve" style="fill-rule:evenodd;clip-rule:evenodd;stroke-linejoin:round;stroke-miterlimit:2"><g><path d="M393.632,140.883L42.175,140.883C34.443,140.883 28.116,134.557 28.116,126.825L28.116,42.476C28.116,34.744 34.443,28.418 42.175,28.418L393.632,28.418C401.364,28.418 407.69,34.744 407.69,42.476L407.69,126.825C407.69,134.557 401.364,140.883 393.632,140.883Z" transform="matrix(4.16667,0,0,4.16667,0,0)" style="fill:#030404;fill-rule:nonzero"/><path d="M393.632,28.418L42.175,28.418C34.443,28.418 28.116,34.744 28.116,42.476L28.116,126.826C28.116,134.558 34.443,140.884 42.175,140.884L393.632,140.884C401.364,140.884 407.69,134.558 407.69,126.826L407.69,42.476C407.69,34.744 401.364,28.418 393.632,28.418ZM393.632,30.667C400.143,30.667 405.44,35.965 405.44,42.476L405.44,126.826C405.44,133.337 400.143,138.635 393.632,138.635L42.175,138.635C35.663,138.635 30.366,133.337 30.366,126.826L30.366,42.476C30.366,35.965 35.663,30.667 42.175,30.667L393.632,30.667Z" transform="matrix(4.16667,0,0,4.16667,0,0)" style="fill:#a6a6a6;fill-rule:nonzero"/><g><g transform="matrix(4.16667,0,0,4.16667,0,0) matrix(0.131757,0,0,0.131757,114.095,84.7488) matrix(1,0,0,1,-489,-194)"><clipPath id="_clip1"><rect width="978" height="388" x="0" y="0"/></clipPath><g clip-path="url(#_clip1)"><g><path d="M142.662,103.442L146.265,94.331L156.668,94.331L151.73,80.51L157.905,64.896L175.59,111.852L162.548,111.852L159.526,103.442L142.662,103.442Z" transform="matrix(7.83465,0,0,7.83465,-398.586,-488.321)" style="fill:#fff;fill-rule:nonzero"/></g><g><path d="M131.535,109.284L150.467,62.328L137.916,62.329L124.965,92.673L115.755,62.329L106.108,62.329L96.22,92.673L89.246,78.845L82.935,98.288L89.343,109.284L101.695,109.284L110.631,82.072L119.15,109.284L131.535,109.284Z" transform="matrix(7.83465,0,0,7.83465,-398.586,-488.321)" style="fill:#ffb500;fill-rule:nonzero"/></g><g><path d="M62.789,93.166L70.52,93.166C72.862,93.166 74.947,92.905 76.776,92.382L78.775,86.223L84.363,69.007C83.938,68.333 83.452,67.694 82.905,67.093C80.036,63.917 75.838,62.33 70.312,62.33L50.875,62.33L50.875,109.286L62.789,109.286L62.789,93.166ZM73.022,73.132C74.143,74.26 74.703,75.77 74.703,77.66C74.703,79.566 74.21,81.077 73.225,82.194C72.144,83.435 70.155,84.056 67.257,84.056L62.789,84.056L62.789,71.441L67.29,71.441C69.991,71.441 71.902,72.004 73.022,73.132Z" transform="matrix(7.83465,0,0,7.83465,-398.586,-488.321)" style="fill:#fff;fill-rule:nonzero"/></g></g></g></g><g><g><path d="M0.718,-0.358C0.718,-0.244 0.689,-0.154 0.631,-0.088C0.573,-0.023 0.493,0.01 0.39,0.01C0.285,0.01 0.204,-0.022 0.147,-0.087C0.09,-0.151 0.061,-0.242 0.061,-0.359C0.061,-0.475 0.09,-0.565 0.147,-0.629C0.204,-0.693 0.286,-0.725 0.391,-0.725C0.494,-0.725 0.574,-0.693 0.631,-0.627C0.689,-0.562 0.718,-0.472 0.718,-0.358ZM0.149,-0.358C0.149,-0.261 0.17,-0.188 0.211,-0.138C0.252,-0.088 0.312,-0.063 0.39,-0.063C0.469,-0.063 0.529,-0.088 0.569,-0.138C0.61,-0.188 0.63,-0.261 0.63,-0.358C0.63,-0.454 0.61,-0.527 0.57,-0.576C0.529,-0.626 0.47,-0.651 0.391,-0.651C0.312,-0.651 0.252,-0.626 0.211,-0.576C0.17,-0.526 0.149,-0.453 0.149,-0.358Z" transform="matrix(4.16667,0,0,4.16667,0,0) matrix(0.24,0,0,0.24,8.92127,5.14112) matrix(75,0,0,75,818.011,274.014)" style="fill:#fff;fill-rule:nonzero"/></g><g><path d="M0.551,-0.506C0.551,-0.434 0.526,-0.378 0.477,-0.339C0.427,-0.3 0.357,-0.281 0.265,-0.281L0.181,-0.281L0.181,-0L0.098,-0L0.098,-0.714L0.283,-0.714C0.462,-0.714 0.551,-0.645 0.551,-0.506ZM0.181,-0.352L0.256,-0.352C0.329,-0.352 0.383,-0.364 0.416,-0.388C0.448,-0.411 0.465,-0.45 0.465,-0.502C0.465,-0.549 0.449,-0.584 0.418,-0.607C0.388,-0.631 0.339,-0.642 0.274,-0.642L0.181,-0.642L0.181,-0.352Z" transform="matrix(4.16667,0,0,4.16667,0,0) matrix(0.24,0,0,0.24,8.92127,5.14112) matrix(75,0,0,75,876.422,274.014)" style="fill:#fff;fill-rule:nonzero"/></g><g><path d="M0.496,-0L0.098,-0L0.098,-0.714L0.496,-0.714L0.496,-0.64L0.181,-0.64L0.181,-0.41L0.477,-0.41L0.477,-0.337L0.181,-0.337L0.181,-0.074L0.496,-0.074L0.496,-0Z" transform="matrix(4.16667,0,0,4.16667,0,0) matrix(0.24,0,0,0.24,8.92127,5.14112) matrix(75,0,0,75,921.576,274.014)" style="fill:#fff;fill-rule:nonzero"/></g><g><path d="M0.656,-0L0.561,-0L0.171,-0.599L0.167,-0.599C0.172,-0.529 0.175,-0.464 0.175,-0.406L0.175,-0L0.098,-0L0.098,-0.714L0.192,-0.714L0.581,-0.117L0.585,-0.117C0.584,-0.126 0.583,-0.154 0.581,-0.202C0.578,-0.25 0.577,-0.284 0.578,-0.304L0.578,-0.714L0.656,-0.714L0.656,-0Z" transform="matrix(4.16667,0,0,4.16667,0,0) matrix(0.24,0,0,0.24,8.92127,5.14112) matrix(75,0,0,75,963.287,274.014)" style="fill:#fff;fill-rule:nonzero"/></g><g transform="matrix(4.16667,0,0,4.16667,0,0) matrix(0.24,0,0,0.24,8.92127,5.14112) matrix(75,0,0,75,1039.31,274.014)"><rect width=".083" height=".714" x=".098" y="-.714" style="fill:#fff;fill-rule:nonzero"/></g><g><path d="M0.656,-0L0.561,-0L0.171,-0.599L0.167,-0.599C0.172,-0.529 0.175,-0.464 0.175,-0.406L0.175,-0L0.098,-0L0.098,-0.714L0.192,-0.714L0.581,-0.117L0.585,-0.117C0.584,-0.126 0.583,-0.154 0.581,-0.202C0.578,-0.25 0.577,-0.284 0.578,-0.304L0.578,-0.714L0.656,-0.714L0.656,-0Z" transform="matrix(4.16667,0,0,4.16667,0,0) matrix(0.24,0,0,0.24,8.92127,5.14112) matrix(75,0,0,75,1060.22,274.014)" style="fill:#fff;fill-rule:nonzero"/></g><g><path d="M0.098,-0.714L0.3,-0.714C0.395,-0.714 0.463,-0.7 0.505,-0.671C0.548,-0.643 0.569,-0.598 0.569,-0.537C0.569,-0.495 0.557,-0.46 0.533,-0.432C0.51,-0.405 0.475,-0.387 0.43,-0.379L0.43,-0.374C0.539,-0.355 0.593,-0.299 0.593,-0.203C0.593,-0.139 0.571,-0.09 0.528,-0.054C0.485,-0.018 0.425,-0 0.347,-0L0.098,-0L0.098,-0.714ZM0.181,-0.408L0.318,-0.408C0.376,-0.408 0.419,-0.417 0.444,-0.436C0.47,-0.454 0.483,-0.485 0.483,-0.529C0.483,-0.569 0.469,-0.598 0.44,-0.615C0.411,-0.633 0.366,-0.642 0.303,-0.642L0.181,-0.642L0.181,-0.408ZM0.181,-0.338L0.181,-0.071L0.33,-0.071C0.388,-0.071 0.431,-0.082 0.46,-0.104C0.489,-0.127 0.504,-0.161 0.504,-0.209C0.504,-0.253 0.489,-0.286 0.459,-0.307C0.429,-0.327 0.384,-0.338 0.323,-0.338L0.181,-0.338Z" transform="matrix(4.16667,0,0,4.16667,0,0) matrix(0.24,0,0,0.24,8.92127,5.14112) matrix(200,0,0,200,805.511,440.681)" style="fill:#fff;fill-rule:nonzero"/></g><g><path d="M0.33,-0.545C0.354,-0.545 0.375,-0.543 0.394,-0.539L0.383,-0.464C0.361,-0.469 0.341,-0.471 0.324,-0.471C0.281,-0.471 0.244,-0.454 0.213,-0.418C0.182,-0.383 0.167,-0.34 0.167,-0.287L0.167,-0L0.086,-0L0.086,-0.535L0.153,-0.535L0.162,-0.436L0.166,-0.436C0.186,-0.471 0.21,-0.498 0.238,-0.517C0.266,-0.535 0.297,-0.545 0.33,-0.545Z" transform="matrix(4.16667,0,0,4.16667,0,0) matrix(0.24,0,0,0.24,8.92127,5.14112) matrix(200,0,0,200,935.101,440.681)" style="fill:#fff;fill-rule:nonzero"/></g><g><path d="M0.548,-0.268C0.548,-0.181 0.526,-0.113 0.482,-0.064C0.438,-0.015 0.377,0.01 0.3,0.01C0.252,0.01 0.209,-0.001 0.172,-0.024C0.135,-0.046 0.107,-0.079 0.086,-0.121C0.066,-0.163 0.056,-0.212 0.056,-0.268C0.056,-0.355 0.078,-0.423 0.122,-0.472C0.165,-0.521 0.226,-0.545 0.303,-0.545C0.378,-0.545 0.438,-0.52 0.482,-0.47C0.526,-0.42 0.548,-0.353 0.548,-0.268ZM0.14,-0.268C0.14,-0.2 0.154,-0.148 0.181,-0.112C0.208,-0.076 0.249,-0.058 0.302,-0.058C0.355,-0.058 0.395,-0.076 0.423,-0.112C0.45,-0.147 0.464,-0.199 0.464,-0.268C0.464,-0.336 0.45,-0.388 0.423,-0.423C0.395,-0.458 0.354,-0.476 0.301,-0.476C0.248,-0.476 0.208,-0.459 0.181,-0.424C0.154,-0.389 0.14,-0.337 0.14,-0.268Z" transform="matrix(4.16667,0,0,4.16667,0,0) matrix(0.24,0,0,0.24,8.92127,5.14112) matrix(200,0,0,200,1012.74,440.681)" style="fill:#fff;fill-rule:nonzero"/></g><g><path d="M0.523,-0L0.425,-0.314C0.419,-0.333 0.407,-0.377 0.39,-0.445L0.386,-0.445C0.373,-0.388 0.362,-0.344 0.352,-0.313L0.251,-0L0.157,-0L0.011,-0.535L0.096,-0.535C0.131,-0.401 0.157,-0.298 0.175,-0.228C0.193,-0.158 0.203,-0.11 0.206,-0.086L0.21,-0.086C0.214,-0.104 0.219,-0.128 0.227,-0.158C0.235,-0.187 0.242,-0.211 0.248,-0.228L0.346,-0.535L0.434,-0.535L0.53,-0.228C0.548,-0.172 0.56,-0.125 0.567,-0.087L0.571,-0.087C0.572,-0.099 0.576,-0.117 0.581,-0.141C0.587,-0.166 0.621,-0.297 0.683,-0.535L0.767,-0.535L0.619,-0L0.523,-0Z" transform="matrix(4.16667,0,0,4.16667,0,0) matrix(0.24,0,0,0.24,8.92127,5.14112) matrix(200,0,0,200,1129.53,440.681)" style="fill:#fff;fill-rule:nonzero"/></g><g><path d="M0.431,-0.146C0.431,-0.096 0.413,-0.058 0.375,-0.031C0.338,-0.004 0.286,0.01 0.219,0.01C0.148,0.01 0.093,-0.001 0.053,-0.024L0.053,-0.099C0.079,-0.086 0.107,-0.076 0.136,-0.068C0.165,-0.061 0.194,-0.057 0.221,-0.057C0.264,-0.057 0.296,-0.064 0.319,-0.077C0.342,-0.091 0.353,-0.111 0.353,-0.139C0.353,-0.16 0.344,-0.178 0.326,-0.193C0.308,-0.207 0.273,-0.225 0.22,-0.245C0.17,-0.264 0.135,-0.28 0.114,-0.294C0.093,-0.308 0.077,-0.323 0.067,-0.341C0.057,-0.358 0.052,-0.379 0.052,-0.404C0.052,-0.447 0.069,-0.482 0.105,-0.507C0.14,-0.532 0.189,-0.545 0.251,-0.545C0.309,-0.545 0.365,-0.533 0.42,-0.51L0.391,-0.444C0.337,-0.466 0.289,-0.477 0.245,-0.477C0.207,-0.477 0.178,-0.471 0.158,-0.459C0.139,-0.447 0.129,-0.43 0.129,-0.409C0.129,-0.395 0.133,-0.383 0.14,-0.373C0.147,-0.362 0.159,-0.353 0.175,-0.344C0.192,-0.335 0.223,-0.321 0.269,-0.304C0.333,-0.281 0.375,-0.258 0.398,-0.234C0.42,-0.211 0.431,-0.181 0.431,-0.146Z" transform="matrix(4.16667,0,0,4.16667,0,0) matrix(0.24,0,0,0.24,8.92127,5.14112) matrix(200,0,0,200,1285.1,440.681)" style="fill:#fff;fill-rule:nonzero"/></g><g><path d="M0.312,0.01C0.233,0.01 0.17,-0.014 0.125,-0.063C0.079,-0.111 0.056,-0.178 0.056,-0.263C0.056,-0.349 0.077,-0.418 0.12,-0.469C0.162,-0.52 0.219,-0.545 0.291,-0.545C0.358,-0.545 0.411,-0.523 0.45,-0.479C0.489,-0.435 0.509,-0.376 0.509,-0.304L0.509,-0.253L0.14,-0.253C0.142,-0.19 0.158,-0.142 0.188,-0.11C0.218,-0.077 0.26,-0.061 0.315,-0.061C0.373,-0.061 0.43,-0.073 0.486,-0.097L0.486,-0.025C0.457,-0.013 0.43,-0.004 0.405,0.002C0.379,0.007 0.348,0.01 0.312,0.01ZM0.29,-0.477C0.247,-0.477 0.213,-0.463 0.187,-0.435C0.162,-0.407 0.147,-0.368 0.142,-0.319L0.422,-0.319C0.422,-0.37 0.41,-0.409 0.388,-0.436C0.365,-0.463 0.332,-0.477 0.29,-0.477Z" transform="matrix(4.16667,0,0,4.16667,0,0) matrix(0.24,0,0,0.24,8.92127,5.14112) matrix(200,0,0,200,1380.51,440.681)" style="fill:#fff;fill-rule:nonzero"/></g><g><path d="M0.33,-0.545C0.354,-0.545 0.375,-0.543 0.394,-0.539L0.383,-0.464C0.361,-0.469 0.341,-0.471 0.324,-0.471C0.281,-0.471 0.244,-0.454 0.213,-0.418C0.182,-0.383 0.167,-0.34 0.167,-0.287L0.167,-0L0.086,-0L0.086,-0.535L0.153,-0.535L0.162,-0.436L0.166,-0.436C0.186,-0.471 0.21,-0.498 0.238,-0.517C0.266,-0.535 0.297,-0.545 0.33,-0.545Z" transform="matrix(4.16667,0,0,4.16667,0,0) matrix(0.24,0,0,0.24,8.92127,5.14112) matrix(200,0,0,200,1492.72,440.681)" style="fill:#fff;fill-rule:nonzero"/></g></g></g></svg>