<svg xmlns="http://www.w3.org/2000/svg" fill-rule="evenodd" stroke-linejoin="round" stroke-miterlimit="2" clip-rule="evenodd" viewBox="0 0 1817 705" xml:space="preserve"><path fill="#030404" fill-rule="nonzero" d="M393.632 140.883H42.175c-7.732 0-14.059-6.326-14.059-14.058V42.476c0-7.732 6.327-14.058 14.059-14.058h351.457c7.732 0 14.058 6.326 14.058 14.058v84.349c0 7.732-6.326 14.058-14.058 14.058z" transform="scale(4.16667)"/><path fill="#A6A6A6" fill-rule="nonzero" d="M393.632 28.418H42.175c-7.732 0-14.059 6.326-14.059 14.058v84.35c0 7.732 6.327 14.058 14.059 14.058h351.457c7.732 0 14.058-6.326 14.058-14.058v-84.35c0-7.732-6.326-14.058-14.058-14.058zm0 2.249c6.511 0 11.808 5.298 11.808 11.809v84.35c0 6.511-5.297 11.809-11.808 11.809H42.175c-6.512 0-11.809-5.298-11.809-11.809v-84.35c0-6.511 5.297-11.809 11.809-11.809h351.457z" transform="scale(4.16667)"/><g transform="scale(4.16667) matrix(.13176 0 0 .13176 114.095 84.749) translate(-489 -194)"><clipPath id="a"><path d="M0 0H978V388H0z"/></clipPath><g clip-path="url(#a)"><path fill="#fff" fill-rule="nonzero" d="m142.662 103.442 3.603-9.111h10.403L151.73 80.51l6.175-15.614 17.685 46.956h-13.042l-3.022-8.41h-16.864z" transform="translate(-398.586 -488.321) scale(7.83465)"/><path fill="#FFB500" fill-rule="nonzero" d="m131.535 109.284 18.932-46.956-12.551.001-12.951 30.344-9.21-30.344h-9.647L96.22 92.673l-6.974-13.828-6.311 19.443 6.408 10.996h12.352l8.936-27.212 8.519 27.212h12.385z" transform="translate(-398.586 -488.321) scale(7.83465)"/><path fill="#fff" fill-rule="nonzero" d="M62.789 93.166h7.731c2.342 0 4.427-.261 6.256-.784l1.999-6.159 5.588-17.216a13.684 13.684 0 0 0-1.458-1.914c-2.869-3.176-7.067-4.763-12.593-4.763H50.875v46.956h11.914v-16.12zm10.233-20.034c1.121 1.128 1.681 2.638 1.681 4.528 0 1.906-.493 3.417-1.478 4.534-1.081 1.241-3.07 1.862-5.968 1.862h-4.468V71.441h4.501c2.701 0 4.612.563 5.732 1.691z" transform="translate(-398.586 -488.321) scale(7.83465)"/></g></g><path fill="#fff" fill-rule="nonzero" d="M.718-.358a.395.395 0 0 1-.087.27A.306.306 0 0 1 .39.01C.285.01.204-.022.147-.087a.396.396 0 0 1-.086-.272c0-.116.029-.206.086-.27a.31.31 0 0 1 .244-.096.3.3 0 0 1 .24.098.39.39 0 0 1 .087.269zm-.569 0c0 .097.021.17.062.22.041.05.101.075.179.075.079 0 .139-.025.179-.075.041-.05.061-.123.061-.22 0-.096-.02-.169-.06-.218-.041-.05-.1-.075-.179-.075-.079 0-.139.025-.18.075a.337.337 0 0 0-.062.218z" transform="scale(4.16667) matrix(.24 0 0 .24 8.921 5.141) matrix(75 0 0 75 818.011 274.014)"/><path fill="#fff" fill-rule="nonzero" d="M.551-.506a.202.202 0 0 1-.074.167.336.336 0 0 1-.212.058H.181V0H.098v-.714h.185c.179 0 .268.069.268.208zm-.37.154h.075c.073 0 .127-.012.16-.036.032-.023.049-.062.049-.114 0-.047-.016-.082-.047-.105C.388-.631.339-.642.274-.642H.181v.29z" transform="scale(4.16667) matrix(.24 0 0 .24 8.921 5.141) matrix(75 0 0 75 876.422 274.014)"/><path fill="#fff" fill-rule="nonzero" d="M.496 0H.098v-.714h.398v.074H.181v.23h.296v.073H.181v.263h.315V0z" transform="scale(4.16667) matrix(.24 0 0 .24 8.921 5.141) matrix(75 0 0 75 921.576 274.014)"/><path fill="#fff" fill-rule="nonzero" d="M.656 0H.561l-.39-.599H.167c.005.07.008.135.008.193V0H.098v-.714h.094l.389.597h.004L.581-.202C.578-.25.577-.284.578-.304v-.41h.078V0z" transform="scale(4.16667) matrix(.24 0 0 .24 8.921 5.141) matrix(75 0 0 75 963.287 274.014)"/><path fill="#fff" fill-rule="nonzero" d="M.098-.714H.181V0H.098z" transform="scale(4.16667) matrix(.24 0 0 .24 8.921 5.141) matrix(75 0 0 75 1039.31 274.014)"/><path fill="#fff" fill-rule="nonzero" d="M.656 0H.561l-.39-.599H.167c.005.07.008.135.008.193V0H.098v-.714h.094l.389.597h.004L.581-.202C.578-.25.577-.284.578-.304v-.41h.078V0z" transform="scale(4.16667) matrix(.24 0 0 .24 8.921 5.141) matrix(75 0 0 75 1060.22 274.014)"/><path fill="#fff" fill-rule="nonzero" d="M.098-.714H.3c.095 0 .163.014.205.043.043.028.064.073.064.134a.156.156 0 0 1-.036.105.17.17 0 0 1-.103.053v.005c.109.019.163.075.163.171a.183.183 0 0 1-.065.149A.273.273 0 0 1 .347 0H.098v-.714zm.083.306h.137c.058 0 .101-.009.126-.028.026-.018.039-.049.039-.093 0-.04-.014-.069-.043-.086a.266.266 0 0 0-.137-.027H.181v.234zm0 .07v.267H.33c.058 0 .101-.011.13-.033.029-.023.044-.057.044-.105 0-.044-.015-.077-.045-.098a.246.246 0 0 0-.136-.031H.181z" transform="scale(4.16667) matrix(.24 0 0 .24 8.921 5.141) matrix(200 0 0 200 805.511 440.681)"/><path fill="#fff" fill-rule="nonzero" d="M.33-.545a.31.31 0 0 1 .064.006l-.011.075a.268.268 0 0 0-.059-.007.14.14 0 0 0-.111.053.189.189 0 0 0-.046.131V0H.086v-.535h.067l.009.099h.004a.238.238 0 0 1 .072-.081.169.169 0 0 1 .092-.028z" transform="scale(4.16667) matrix(.24 0 0 .24 8.921 5.141) matrix(200 0 0 200 935.101 440.681)"/><path fill="#fff" fill-rule="nonzero" d="M.548-.268a.294.294 0 0 1-.066.204A.233.233 0 0 1 .3.01a.227.227 0 0 1-.214-.131.338.338 0 0 1-.03-.147c0-.087.022-.155.066-.204a.229.229 0 0 1 .181-.073c.075 0 .135.025.179.075.044.05.066.117.066.202zm-.408 0c0 .068.014.12.041.156.027.036.068.054.121.054a.144.144 0 0 0 .121-.054.253.253 0 0 0 .041-.156.251.251 0 0 0-.041-.155.148.148 0 0 0-.122-.053c-.053 0-.093.017-.12.052a.253.253 0 0 0-.041.156z" transform="scale(4.16667) matrix(.24 0 0 .24 8.921 5.141) matrix(200 0 0 200 1012.74 440.681)"/><path fill="#fff" fill-rule="nonzero" d="M.523 0 .425-.314A2.8 2.8 0 0 1 .39-.445H.386a1.695 1.695 0 0 1-.034.132L.251 0H.157L.011-.535h.085l.079.307c.018.07.028.118.031.142H.21l.017-.072.021-.07.098-.307h.088l.096.307c.018.056.03.103.037.141h.004c.001-.012.005-.03.01-.054l.102-.394h.084L.619 0H.523z" transform="scale(4.16667) matrix(.24 0 0 .24 8.921 5.141) matrix(200 0 0 200 1129.53 440.681)"/><path fill="#fff" fill-rule="nonzero" d="M.431-.146c0 .05-.018.088-.056.115A.26.26 0 0 1 .219.01a.334.334 0 0 1-.166-.034v-.075a.367.367 0 0 0 .168.042.2.2 0 0 0 .098-.02.067.067 0 0 0 .034-.062.068.068 0 0 0-.027-.054.444.444 0 0 0-.106-.052.577.577 0 0 1-.106-.049.14.14 0 0 1-.047-.047.122.122 0 0 1-.015-.063c0-.043.017-.078.053-.103a.248.248 0 0 1 .146-.038c.058 0 .114.012.169.035l-.029.066a.39.39 0 0 0-.146-.033.171.171 0 0 0-.087.018.057.057 0 0 0-.029.05c0 .014.004.026.011.036.007.011.019.02.035.029a.83.83 0 0 0 .094.04.344.344 0 0 1 .129.07.123.123 0 0 1 .033.088z" transform="scale(4.16667) matrix(.24 0 0 .24 8.921 5.141) matrix(200 0 0 200 1285.1 440.681)"/><path fill="#fff" fill-rule="nonzero" d="M.312.01a.242.242 0 0 1-.187-.073.278.278 0 0 1-.069-.2.31.31 0 0 1 .064-.206.21.21 0 0 1 .171-.076c.067 0 .12.022.159.066a.256.256 0 0 1 .059.175v.051H.14c.002.063.018.111.048.143.03.033.072.049.127.049a.43.43 0 0 0 .171-.036v.072a.548.548 0 0 1-.081.027.496.496 0 0 1-.093.008zM.29-.477a.133.133 0 0 0-.103.042.2.2 0 0 0-.045.116h.28a.181.181 0 0 0-.034-.117.122.122 0 0 0-.098-.041z" transform="scale(4.16667) matrix(.24 0 0 .24 8.921 5.141) matrix(200 0 0 200 1380.51 440.681)"/><path fill="#fff" fill-rule="nonzero" d="M.33-.545a.31.31 0 0 1 .064.006l-.011.075a.268.268 0 0 0-.059-.007.14.14 0 0 0-.111.053.189.189 0 0 0-.046.131V0H.086v-.535h.067l.009.099h.004a.238.238 0 0 1 .072-.081.169.169 0 0 1 .092-.028z" transform="scale(4.16667) matrix(.24 0 0 .24 8.921 5.141) matrix(200 0 0 200 1492.72 440.681)"/></svg>